<?xml version="1.0" encoding="UTF-8"?>
<svg width="16px" height="14px" viewBox="0 0 16 14" version="1.1" xmlns="http://www.w3.org/2000/svg" xmlns:xlink="http://www.w3.org/1999/xlink">
    <title>briefcase</title>
    <g id="Reigstration-&amp;-Client-Onboarding-DI:4-(DS-117)" stroke="none" stroke-width="1" fill="none" fill-rule="evenodd">
        <g id="Client-Registration-API-V2---Filled" transform="translate(-848.000000, -640.000000)">
            <g id="api__stepper" transform="translate(664.000000, 206.000000)">
                <g id="profile__preview" transform="translate(48.000000, 355.000000)">
                    <g id="experience" transform="translate(136.000000, 76.000000)">
                        <g id="briefcase" transform="translate(0.000000, 2.000000)">
                            <path d="M9.33333333,1.33333333 C10.069713,1.33333333 10.6666667,1.930287 10.6666667,2.66666667 L10.6666667,4 L14,4 C14.7363797,4 15.3333333,4.59695367 15.3333333,5.33333333 L15.3333333,13.3333333 C15.3333333,14.069713 14.7363797,14.6666667 14,14.6666667 L2,14.6666667 C1.26362033,14.6666667 0.666666667,14.069713 0.666666667,13.3333333 L0.666666667,5.33333333 C0.666666667,4.59695367 1.26362033,4 2,4 L5.33333333,4 L5.33333333,2.66666667 C5.33333333,1.930287 5.930287,1.33333333 6.66666667,1.33333333 L9.33333333,1.33333333 Z M9.99955004,9.87732107 L9.9996453,10 C9.9996453,10.7363797 9.40269163,11.3333333 8.66631196,11.3333333 L7.33297863,11.3333333 C6.59659896,11.3333333 5.9996453,10.7363797 5.9996453,10 L5.99944902,9.87719619 C4.49963404,9.69002942 3.13463119,9.29679504 1.99987154,8.75202507 L2,12.3333333 C2,12.8658936 2.41630665,13.3012203 2.9412424,13.3316358 L3,13.3333333 L13,13.3333333 C13.5325603,13.3333333 13.967887,12.9170267 13.9983024,12.3920909 L14,12.3333333 L14.0005575,8.75181907 C12.8654605,9.2968171 11.4999477,9.69018079 9.99955004,9.87732107 Z M8.33333333,8.33333333 L7.66666667,8.33333333 L7.61444984,8.33534816 C7.30526297,8.35930266 7.05521819,8.59417803 7.00802232,8.8962675 L7.00182858,8.95024589 L7,9 L7,9.66666667 L7.00201482,9.71888349 C7.02596932,10.0280704 7.2608447,10.2781151 7.56293417,10.325311 L7.61691255,10.3315048 L7.66666667,10.3333333 L8.33333333,10.3333333 L8.38555016,10.3313185 C8.69473703,10.307364 8.94478181,10.0724886 8.99197768,9.77039916 L8.99817142,9.71642078 L9,9.66666667 L9,9 L8.99798518,8.94778318 C8.97403068,8.6385963 8.7391553,8.38855153 8.43706583,8.34135565 L8.38308745,8.33516191 L8.33333333,8.33333333 Z M13,5.33333333 L3,5.33333333 C2.46743971,5.33333333 2.03211304,5.74963999 2.00169756,6.27457574 L2,6.33333333 L1.99976624,7.25125089 C3.03597588,7.85286905 4.41748415,8.31739922 6.00598086,8.53357925 C6.07084332,7.88206492 6.60422901,7.36858183 7.26426164,7.33507353 L7.33297863,7.33333333 L8.66631196,7.33333333 L8.73502895,7.33507353 C9.39506132,7.36858165 9.92843929,7.88205941 9.99306993,8.53341387 C11.5821278,8.31736844 12.9640611,7.85278714 14.0004874,7.25103493 L14,6.33333333 C14,5.80077304 13.5836933,5.36544637 13.0587576,5.3350309 L13,5.33333333 Z M8.66666667,2.66666667 L7.33333333,2.66666667 C6.9818794,2.66666667 6.69394496,2.93862593 6.66849525,3.28357922 L6.66666667,3.33333333 L6.66666667,4 L9.33333333,4 L9.33333333,3.33333333 C9.33333333,2.9818794 9.06137407,2.69394496 8.71642078,2.66849525 L8.66666667,2.66666667 Z" id="b" fill="#003A61"></path>
                            <rect id="container" x="0" y="0" width="16" height="16"></rect>
                        </g>
                    </g>
                </g>
            </g>
        </g>
    </g>
</svg>