<?xml version="1.0" encoding="UTF-8"?>
<svg width="16px" height="16px" viewBox="0 0 16 16" version="1.1" xmlns="http://www.w3.org/2000/svg" xmlns:xlink="http://www.w3.org/1999/xlink">
    <title>money</title>
    <g id="Reigstration-&amp;-Client-Onboarding-DI:4-(DS-117)" stroke="none" stroke-width="1" fill="none" fill-rule="evenodd">
        <g id="Client-Registration-API-V2---Filled" transform="translate(-848.000000, -671.000000)">
            <g id="api__stepper" transform="translate(664.000000, 206.000000)">
                <g id="profile__preview" transform="translate(48.000000, 355.000000)">
                    <g id="rate" transform="translate(136.000000, 108.000000)">
                        <g id="money" transform="translate(0.000000, 2.000000)">
                            <path d="M8,0.666666667 C12.0500882,0.666666667 15.3333333,3.94991183 15.3333333,8 C15.3333333,12.0500882 12.0500882,15.3333333 8,15.3333333 C3.94991183,15.3333333 0.666666667,12.0500882 0.666666667,8 C0.666666667,3.94991183 3.94991183,0.666666667 8,0.666666667 Z M8.01424492,3.33333333 C7.64494926,3.33333333 7.33987893,3.6266709 7.31404918,3.99511422 L7.31227796,4.04580153 L7.31227796,4.50890586 C6.75070438,4.61577607 6.32952421,4.93638676 6.04873742,5.32824427 C5.41696715,6.2188295 5.59245887,7.46564885 6.3997209,8.14249365 C6.79081677,8.44020357 7.27270278,8.58433295 7.76107379,8.68897024 L7.87385154,8.71246819 C8.89170364,8.92620863 8.96190033,9.06870227 8.92680198,9.38931296 C8.92680198,9.5923664 8.86344947,9.89187022 8.49600484,10.0129408 L8.43542509,10.0305343 C7.90894989,10.2086514 7.24208127,9.95928751 6.96129448,9.56743003 C6.71560603,9.24681931 6.29442586,9.17557252 5.97854073,9.38931296 C5.66265559,9.60305343 5.59245887,10.0661578 5.80304897,10.3867684 C6.13338636,10.8561592 6.65026724,11.1993273 7.20738298,11.3865732 L7.31227796,11.4198473 L7.31227796,11.9541985 C7.31227796,12.346056 7.62816309,12.6666667 8.01424492,12.6666667 C8.38354058,12.6666667 8.68861091,12.3733291 8.71444067,12.0048858 L8.71621188,11.9541985 L8.71621188,11.4198473 C8.75131023,11.4198473 8.78640857,11.3842239 8.82150695,11.3842239 C9.73406398,11.13486 10.2956376,10.4223918 10.3307359,9.5318066 C10.4009326,7.89312975 9.03209702,7.57251906 8.18973668,7.39440202 L7.84741194,7.30275728 C7.60427959,7.23694235 7.39867389,7.17244079 7.27717961,7.07379134 C6.99639282,6.86005087 6.99639282,6.43256997 7.17188455,6.18320611 C7.48776968,5.75572517 8.22483502,5.82697199 9.13739208,6.39694654 C9.48837556,6.61068701 9.90955573,6.50381679 10.1201458,6.18320611 C10.3307359,5.82697199 10.2254409,5.39949109 9.90955573,5.18575062 C9.52666467,4.9266713 9.14377358,4.75591444 8.81362232,4.64671571 L8.71621188,4.61577607 L8.71621188,4.04580153 C8.71621188,3.65394402 8.40032675,3.33333333 8.01424492,3.33333333 Z" id="icon" fill="#003A61"></path>
                            <rect id="container" x="0" y="0" width="16" height="16"></rect>
                        </g>
                    </g>
                </g>
            </g>
        </g>
    </g>
</svg>