<?xml version="1.0" encoding="UTF-8"?>
<svg width="160px" height="36px" viewBox="0 0 160 36" version="1.1" xmlns="http://www.w3.org/2000/svg" xmlns:xlink="http://www.w3.org/1999/xlink">
    <title>Logo + Name</title>
    <g id="Reigstration-&amp;-Client-Onboarding-DI:4-(DS-117)" stroke="none" stroke-width="1" fill="none" fill-rule="evenodd">
        <g id="Client-Registration-API-V2---Filled" transform="translate(-24.000000, -18.000000)">
            <g id="Logo-+-Name" transform="translate(24.000000, 18.000000)">
                <rect id="Rectangle" x="0" y="0" width="160" height="36"></rect>
                <path d="M49.6192829,12.0186277 C53.2841965,12.0186277 56.2385657,14.9618102 56.2385657,18.6128467 C56.2385657,22.2638832 53.2841965,25.2070657 49.6192829,25.2070657 C45.9543692,25.2070657 43,22.2638832 43,18.6128467 C43,14.9618102 45.9543692,12.0186277 49.6192829,12.0186277 Z M49.6005843,23.977635 C52.5736521,23.977635 54.8922709,21.5560292 54.8922709,18.6128467 C54.8922709,15.6696642 52.5736521,13.2480584 49.6005843,13.2480584 C46.6462151,13.2480584 44.3275963,15.6696642 44.3275963,18.6128467 C44.3275963,21.5560292 46.6462151,23.977635 49.6005843,23.977635 Z M72.6439841,12.2794161 L71.2041965,12.2794161 L66.1742895,23.269781 L61.1443825,12.2794161 L59.6858964,12.2794161 L65.5572377,25.0394161 L66.7913413,25.0394161 L72.6439841,12.2794161 Z M78.7278088,13.490219 L86.225923,13.490219 L86.225923,12.2794161 L77.4002125,12.2794161 L77.4002125,24.9462774 L86.225923,24.9462774 L86.225923,23.7354745 L78.7278088,23.7354745 L78.7278088,19.2648175 L85.4779814,19.2648175 L85.4779814,18.0353869 L78.7278088,18.0353869 L78.7278088,13.490219 Z M96.2551394,20.3452263 L93.0950863,20.3452263 L93.0950863,24.9462774 L91.76749,24.9462774 L91.76749,12.2794161 L96.4982205,12.2794161 C99.3590969,12.2794161 101.341142,13.8255182 101.341142,16.321635 C101.341142,18.3893139 99.9574502,19.8236496 97.8258167,20.2334599 L101.902098,24.9462774 L100.237928,24.9462774 L96.2551394,20.3452263 Z M93.0950863,19.1344234 L96.4608234,19.1344234 C98.5363612,19.1344234 100.013546,18.0726423 100.013546,16.321635 C100.013546,14.552 98.5363612,13.490219 96.4608234,13.490219 L93.0950863,13.490219 L93.0950863,19.1344234 Z M106.733121,12.2794161 L111.164675,12.2794161 C114.081647,12.2794161 116.026295,13.9559124 116.026295,16.4706569 C116.026295,19.0599124 114.025551,20.7736642 110.996388,20.7736642 L108.060717,20.7736642 L108.060717,24.9462774 L106.733121,24.9462774 L106.733121,12.2794161 Z M108.060717,19.5628613 L111.108579,19.5628613 C113.27761,19.5628613 114.717397,18.3148029 114.717397,16.4706569 C114.717397,14.6823942 113.27761,13.490219 111.108579,13.490219 L108.060717,13.490219 L108.060717,19.5628613 Z M128.037556,21.2579854 L121.362178,21.2579854 L119.716707,24.9462774 L118.295618,24.9462774 L124.073466,12.1862774 L125.326268,12.1862774 L131.104117,24.9462774 L129.683028,24.9462774 L128.037556,21.2579854 Z M127.495299,20.0471825 L124.690518,13.769635 L121.904436,20.0471825 L127.495299,20.0471825 Z M140.067517,12 C137.374927,12 135.561169,13.4529635 135.561169,15.6324088 C135.561169,17.3461606 136.739177,18.519708 139.076494,18.948146 L141.282922,19.3765839 C142.928393,19.6746277 143.676335,20.4756204 143.676335,21.5374015 C143.676335,23.0462482 142.386135,24.0335182 140.347995,24.0335182 C138.010677,24.0335182 136.626985,22.8785985 136.30911,20.9040584 L135.000212,20.9040584 C135.299389,23.6423358 137.244037,25.2256934 140.291899,25.2256934 C143.134077,25.2256934 145.022629,23.698219 145.022629,21.3883796 C145.022629,19.5814891 143.751129,18.519708 141.488606,18.0912701 L139.562656,17.7187153 C137.879788,17.4206715 136.963559,16.7128175 136.963559,15.5578978 C136.963559,14.0863066 138.23506,13.1549197 140.161009,13.1549197 C142.292643,13.1549197 143.414555,14.1608175 143.713732,15.7069197 L145.022629,15.7069197 C144.704754,13.2108029 142.647915,12 140.067517,12 Z M154.958353,12 C152.265764,12 150.452005,13.4529635 150.452005,15.6324088 C150.452005,17.3461606 151.630013,18.519708 153.967331,18.948146 L156.173758,19.3765839 C157.81923,19.6746277 158.567171,20.4756204 158.567171,21.5374015 C158.567171,23.0462482 157.276972,24.0335182 155.238831,24.0335182 C152.901514,24.0335182 151.517822,22.8785985 151.199947,20.9040584 L149.891049,20.9040584 C150.190226,23.6423358 152.134874,25.2256934 155.182736,25.2256934 C158.024914,25.2256934 159.913466,23.698219 159.913466,21.3883796 C159.913466,19.5814891 158.641965,18.519708 156.379442,18.0912701 L154.453493,17.7187153 C152.770624,17.4206715 151.854396,16.7128175 151.854396,15.5578978 C151.854396,14.0863066 153.125896,13.1549197 155.051846,13.1549197 C157.183479,13.1549197 158.305392,14.1608175 158.604568,15.7069197 L159.913466,15.7069197 C159.595591,13.2108029 157.538752,12 154.958353,12 Z" id="OVERPASS-Copy-5" fill="#0099FF"></path>
                <path d="M14.5001264,31 C8.1590132,31 3,25.8025096 3,19.2899507 C3,19.0742461 3.16966612,19 3.37928343,19 L25.6207166,19 C25.8303339,19 26,19.0742461 26,19.2899507 C26,25.8025096 20.8412397,31 14.5001264,31 M14.4998743,4 C6.49173436,4 0,10.4919857 0,18.5001257 C0,26.5082656 6.49173436,33 14.4998743,33 C22.5080143,33 29,26.5082656 29,18.5001257 C29,10.4919857 22.5080143,4 14.4998743,4" id="Fill-1-Copy" fill="#0099FF"></path>
            </g>
        </g>
    </g>
</svg>