<?xml version="1.0" encoding="UTF-8"?>
<svg width="16px" height="16px" viewBox="0 0 16 16" version="1.1" xmlns="http://www.w3.org/2000/svg" xmlns:xlink="http://www.w3.org/1999/xlink">
    <title>timezone</title>
    <g id="Reigstration-&amp;-Client-Onboarding-DI:4-(DS-117)" stroke="none" stroke-width="1" fill="none" fill-rule="evenodd">
        <g id="Client-Registration-API-V2---Filled" transform="translate(-848.000000, -607.000000)">
            <g id="api__stepper" transform="translate(664.000000, 206.000000)">
                <g id="profile__preview" transform="translate(48.000000, 355.000000)">
                    <g id="location" transform="translate(136.000000, 44.000000)">
                        <g id="timezone" transform="translate(0.000000, 2.000000)">
                            <path d="M11.3333333,7.33333333 C13.5424723,7.33333333 15.3333333,9.12419433 15.3333333,11.3333333 C15.3333333,13.5424723 13.5424723,15.3333333 11.3333333,15.3333333 C9.12419433,15.3333333 7.33333333,13.5424723 7.33333333,11.3333333 C7.33333333,9.12419433 9.12419433,7.33333333 11.3333333,7.33333333 Z M11.3333333,8.66666667 C9.860574,8.66666667 8.66666667,9.860574 8.66666667,11.3333333 C8.66666667,12.8060927 9.860574,14 11.3333333,14 C12.8060927,14 14,12.8060927 14,11.3333333 C14,9.860574 12.8060927,8.66666667 11.3333333,8.66666667 Z M11.8774852,9.7008778 C12.2101476,9.81176528 12.3972116,10.1594916 12.3136947,10.4940915 L12.2991222,10.5441518 L12.0686667,11.2346667 L12.5547002,11.9635332 C12.7487234,12.254568 12.6837133,12.6426762 12.4140683,12.8558654 L12.3698001,12.8880335 C12.0787653,13.0820568 11.6906572,13.0170466 11.477468,12.7474016 L11.4452998,12.7031335 L10.7786331,11.7031335 C10.675928,11.5490758 10.6424145,11.3601083 10.684165,11.1815767 L10.7008778,11.1225148 L11.0342111,10.1225148 C11.150643,9.77321928 11.5281896,9.58444595 11.8774852,9.7008778 Z M4.82316893,0.684804408 L4.87748518,0.700877801 L8.67733333,1.96733333 L11.8084347,1.02811581 C12.2203338,0.904546105 12.6347822,1.19698125 12.6649171,1.61758326 L12.6666667,1.66666667 L12.6666667,5.33333333 C12.6666667,5.70152317 12.3681898,6 12,6 C11.6485461,6 11.3606116,5.72804074 11.3351619,5.38308745 L11.3333333,5.33333333 L11.3333333,2.56233333 L9.33333333,3.16231496 L9.33333333,6 C9.33333333,6.36818983 9.0348565,6.66666667 8.66666667,6.66666667 C8.31521273,6.66666667 8.02727829,6.3947074 8.00182858,6.04975411 L8,6 L8,3.14698163 L5.33333333,2.25831496 L5.33333333,9.6666483 L5.66666667,9.66666667 C6.0348565,9.66666667 6.33333333,9.9651435 6.33333333,10.3333333 C6.33333333,10.6847873 6.06137407,10.9727217 5.71642078,10.9981714 L5.66666667,11 L5.21661534,11.0004861 C5.15469178,11.090862 5.07049729,11.1660565 4.96981718,11.2174217 L4.92109961,11.2398607 L1.58776627,12.6162048 C1.16403716,12.7911639 0.699872837,12.4964513 0.668365344,12.0485601 L0.666666667,12 L0.666666667,2.70967742 C0.666666667,2.45775856 0.808441006,2.22904045 1.03018282,2.11591164 L1.07890039,2.09347264 L4.42019157,0.713899732 L4.47143393,0.695775195 L4.52018233,0.682657054 L4.53621775,0.679190271 C4.63404866,0.659299474 4.73159399,0.662438545 4.82316893,0.684804408 Z M4,2.32966667 L2,3.15533333 L2,11.0033333 L4,10.1773333 L4,2.32966667 Z" id="icon" fill="#003A61"></path>
                            <rect id="container" x="0" y="0" width="16" height="16"></rect>
                        </g>
                    </g>
                </g>
            </g>
        </g>
    </g>
</svg>